<svg width="22" height="25" viewBox="0 0 22 25" fill="none" xmlns="http://www.w3.org/2000/svg">
<path d="M1.69252 7.02987C0.759044 7.02987 0 7.73185 0 8.59796V14.8691C0.017545 15.2741 0.203537 15.6571 0.519027 15.9379C0.834516 16.2187 1.25503 16.3755 1.69252 16.3755C2.13 16.3755 2.55052 16.2187 2.86601 15.9379C3.1815 15.6571 3.36749 15.2741 3.38503 14.8691V8.59796C3.38503 7.73185 2.62599 7.02987 1.69252 7.02987ZM20.3075 7.02987C19.374 7.02987 18.615 7.73185 18.615 8.59796V14.8691C18.6325 15.2741 18.8185 15.6571 19.134 15.9379C19.4495 16.2187 19.87 16.3755 20.3075 16.3755C20.745 16.3755 21.1655 16.2187 21.481 15.9379C21.7965 15.6571 21.9825 15.2741 22 14.8691V8.59796C22 7.73185 21.2423 7.02987 20.3075 7.02987ZM4.23129 19.5733H5.92381V23.4936C5.94135 23.8986 6.12735 24.2816 6.44284 24.5624C6.75833 24.8432 7.17884 25 7.61633 25C8.05381 25 8.47433 24.8432 8.78982 24.5624C9.10531 24.2816 9.2913 23.8986 9.30884 23.4936V19.5733H12.6939V23.4936C12.7114 23.8986 12.8974 24.2816 13.2129 24.5624C13.5284 24.8432 13.9489 25 14.3864 25C14.8239 25 15.2444 24.8432 15.5599 24.5624C15.8754 24.2816 16.0614 23.8986 16.0789 23.4936V19.5733H17.7714V7.81391H4.23266V19.5733H4.23129ZM14.9969 1.97586L15.8663 0.58074C15.9169 0.491016 15.9281 0.386677 15.8976 0.28949C15.8671 0.192303 15.7973 0.109775 15.7027 0.0591241C15.6081 0.00847308 15.4961 -0.00638873 15.39 0.0176392C15.2839 0.0416671 15.1919 0.102729 15.1332 0.188085L14.2842 1.54786C13.2801 1.02952 12.1495 0.757867 11 0.75876C9.80761 0.75876 8.6888 1.04662 7.71581 1.54912L6.86819 0.188085C6.81062 0.10071 6.71851 0.0376161 6.61146 0.0122486C6.50442 -0.0131189 6.39092 0.0012458 6.29514 0.0522814C6.19937 0.103317 6.12889 0.186988 6.09872 0.285466C6.06856 0.383943 6.0811 0.489441 6.13367 0.579477L7.0031 1.9746C6.14402 2.55554 5.4451 3.31617 4.96321 4.19461C4.48133 5.07305 4.23009 6.04448 4.22993 7.02987H17.7687C17.7686 6.04479 17.5175 5.07364 17.0359 4.19543C16.5542 3.31721 15.8556 2.55674 14.9969 1.97586ZM8.46122 4.67773C8.35009 4.67773 8.24005 4.65745 8.13737 4.61805C8.0347 4.57865 7.94141 4.52089 7.86283 4.44809C7.78425 4.37528 7.72191 4.28885 7.67938 4.19372C7.63685 4.0986 7.61496 3.99665 7.61496 3.89368C7.61496 3.79072 7.63685 3.68877 7.67938 3.59364C7.72191 3.49852 7.78425 3.41208 7.86283 3.33928C7.94141 3.26647 8.0347 3.20872 8.13737 3.16932C8.24005 3.12992 8.35009 3.10964 8.46122 3.10964C8.68567 3.10964 8.90092 3.19224 9.05962 3.33928C9.21832 3.48632 9.30748 3.68574 9.30748 3.89368C9.30748 4.10163 9.21832 4.30105 9.05962 4.44809C8.90092 4.59512 8.68567 4.67773 8.46122 4.67773ZM13.5388 4.67773C13.4276 4.67773 13.3176 4.65745 13.2149 4.61805C13.1123 4.57865 13.019 4.52089 12.9404 4.44809C12.8618 4.37528 12.7995 4.28885 12.7569 4.19372C12.7144 4.0986 12.6925 3.99665 12.6925 3.89368C12.6925 3.79072 12.7144 3.68877 12.7569 3.59364C12.7995 3.49852 12.8618 3.41208 12.9404 3.33928C13.019 3.26647 13.1123 3.20872 13.2149 3.16932C13.3176 3.12992 13.4276 3.10964 13.5388 3.10964C13.7632 3.10964 13.9785 3.19224 14.1372 3.33928C14.2959 3.48632 14.385 3.68574 14.385 3.89368C14.385 4.10163 14.2959 4.30105 14.1372 4.44809C13.9785 4.59512 13.7632 4.67773 13.5388 4.67773Z" fill="white"/>
</svg>
