<svg width="20" height="22" viewBox="0 0 20 22" fill="none" xmlns="http://www.w3.org/2000/svg">
<path fill-rule="evenodd" clip-rule="evenodd" d="M19.8739 16.5628C18.9913 18.741 16.4537 22.3953 13.9634 21.9654C12.2454 21.6645 11.4889 20.8619 9.56597 21.1915C8.21049 21.4208 7.73765 21.8937 6.65012 21.9941C5.85662 21.9724 5.08374 21.7592 4.41071 21.3765C3.73768 20.9937 3.18872 20.4551 2.8201 19.8158C2.14771 18.9456 1.5772 18.0138 1.11787 17.0357C0.0182087 14.8221 -0.279822 12.3482 0.266761 9.9707C0.510196 9.0584 1.00563 8.21767 1.70618 7.52805C2.40673 6.83844 3.28922 6.32275 4.27015 6.02979C6.07176 5.57278 7.99802 5.76795 9.64478 6.57435C10.5274 6.80364 11.2209 6.45971 12.2769 6.10145C13.5086 5.67893 14.8549 5.61757 16.1269 5.92597C17.3989 6.23438 18.5328 6.89708 19.3695 7.82111C15.7287 10.1857 15.8548 14.2555 20 16.2188C20 16.3191 19.9842 16.3191 19.8739 16.5628Z" fill="white"/>
<path fill-rule="evenodd" clip-rule="evenodd" d="M14.2019 0C14.2254 0.290998 14.2254 0.583168 14.2019 0.874165C14.1272 1.99216 13.605 3.04664 12.734 3.83864C11.8629 4.63064 10.7031 5.1054 9.4735 5.17334C9.45154 4.92534 9.45154 4.67614 9.4735 4.42815C9.60276 3.38903 10.09 2.41368 10.8657 1.64153C11.6413 0.869375 12.6656 0.339961 13.7921 0.128975L14.2019 0Z" fill="white"/>
</svg>
