<svg width="44" height="44" viewBox="0 0 44 44" fill="none" xmlns="http://www.w3.org/2000/svg">
<path d="M16 42H28C38 42 42 38 42 28V16C42 6 38 2 28 2H16C6 2 2 6 2 16V28C2 38 6 42 16 42Z" stroke="white" stroke-width="4" stroke-linecap="round" stroke-linejoin="round"/>
<path d="M22 29C25.866 29 29 25.866 29 22C29 18.134 25.866 15 22 15C18.134 15 15 18.134 15 22C15 25.866 18.134 29 22 29Z" stroke="white" stroke-width="4" stroke-linecap="round" stroke-linejoin="round"/>
<path d="M33.2734 12H33.2966" stroke="white" stroke-width="4" stroke-linecap="round" stroke-linejoin="round"/>
</svg>
