<svg width="53" height="44" viewBox="0 0 53 44" fill="none" xmlns="http://www.w3.org/2000/svg">
<path d="M51.0422 2.02242C51.0422 2.02242 46.5439 4.67987 44.0426 5.43309C42.6999 3.88939 40.9157 2.79526 38.931 2.29867C36.9464 1.80209 34.8572 1.92699 32.9459 2.65652C31.0346 3.38604 29.3932 4.68497 28.2443 6.37762C27.0951 8.07029 26.4937 10.075 26.5211 12.1207V14.3499C22.6035 14.4514 18.7218 13.5826 15.2214 11.8207C11.7209 10.0588 8.71058 7.4586 6.45838 4.25161C6.45838 4.25161 -2.45838 24.3144 17.6043 33.2312C13.0134 36.3474 7.54436 37.91 2 37.6896C22.0627 48.8355 46.5838 37.6896 46.5838 12.0538C46.5818 11.4328 46.5221 10.8134 46.4055 10.2036C48.6806 7.95985 51.0422 2.02242 51.0422 2.02242Z" stroke="white" stroke-width="3.5" stroke-linecap="round" stroke-linejoin="round"/>
</svg>
