<svg width="50" height="40" viewBox="0 0 50 40" fill="none" xmlns="http://www.w3.org/2000/svg">
<path d="M36 40H13.1429C5.28 40 0 34.72 0 26.8571V13.1429C0 5.28 5.28 0 13.1429 0H36C43.8629 0 49.1429 5.28 49.1429 13.1429V26.8571C49.1429 34.72 43.8629 40 36 40ZM13.1429 3.42857C7.24571 3.42857 3.42857 7.24571 3.42857 13.1429V26.8571C3.42857 32.7543 7.24571 36.5714 13.1429 36.5714H36C41.8971 36.5714 45.7143 32.7543 45.7143 26.8571V13.1429C45.7143 7.24571 41.8971 3.42857 36 3.42857H13.1429Z" fill="white"/>
<path d="M21.3484 28.0662C20.6856 28.0662 20.0456 27.9062 19.474 27.5862C18.1483 26.832 17.3711 25.3005 17.3711 23.4034V16.6377C17.3711 14.7406 18.1255 13.2092 19.474 12.4549C20.7999 11.7006 22.5139 11.8377 24.1368 12.8205L29.7827 16.2034C31.337 17.1405 32.2282 18.5348 32.2282 20.0205C32.2282 21.5062 31.337 22.9005 29.7827 23.8377L24.1368 27.2205C23.1996 27.7691 22.2399 28.0662 21.3484 28.0662ZM21.3484 15.3577C21.257 15.3577 21.1882 15.3806 21.1425 15.4034C20.9825 15.4948 20.7996 15.9062 20.7996 16.6148V23.3805C20.7996 24.0662 20.9825 24.4777 21.1425 24.592C21.3254 24.6834 21.7599 24.6377 22.3542 24.272L27.9996 20.8891C28.5711 20.5462 28.777 20.2034 28.777 19.9977C28.777 19.792 28.5711 19.472 27.9996 19.1062L22.3542 15.7234C21.9427 15.472 21.577 15.3577 21.3484 15.3577Z" fill="white"/>
</svg>
